<svg xmlns="http://www.w3.org/2000/svg" fill="none" viewBox="-0.5 -0.5 48 48" id="Google-Icon--Streamline-Svg-Logos.svg" height="48" width="48"><desc>Google Icon Streamline Icon: https://streamlinehq.com</desc><path fill="#4285F4" d="M46.05040416666667 24.011320833333333c0 -1.8919458333333332 -0.15353333333333333 -3.2725708333333334 -0.4857645833333333 -4.7043083333333335H23.960404166666663v8.5393125h12.6811875c-0.2555625 2.1221479166666666 -1.6361875 5.3180499999999995 -4.7043083333333335 7.465558333333333l-0.042985416666666665 0.28591666666666665 6.8308625 5.291759375 0.47323125 0.04724479166666667c4.346324999999999 -4.01409375 6.8520125 -9.920133333333332 6.8520125 -16.925483333333332Z" stroke-width="1"></path><path fill="#34A853" d="M23.960159375 46.510416666666664c6.212714583333333 0 11.42834375 -2.0454791666666665 15.237987500000001 -5.573612499999999L31.937038541666663 35.311932291666665c-1.943058333333333 1.3550687499999998 -4.550970833333333 2.301041666666667 -7.976879166666666 2.301041666666667 -6.084933333333334 0 -11.24945 -4.013946875 -13.090479166666666 -9.562003124999999l-0.269809375 0.0229125L3.4970203125 33.570827083333334l-0.09288864583333334 0.25820624999999997C7.188013541666667 41.345753125 14.960442708333334 46.510416666666664 23.960159375 46.510416666666664Z" stroke-width="1"></path><path fill="#FBBC05" d="M10.869973958333333 28.05097083333333c-0.4858135416666666 -1.4317374999999999 -0.7669322916666667 -2.965895833333333 -0.7669322916666667 -4.550970833333333 0 -1.5852708333333332 0.2811677083333333 -3.1192333333333333 0.7413760416666666 -4.550970833333333l-0.012876041666666666 -0.3049125L3.6396897916666666 13.058852083333333l-0.23530354166666664 0.11191875C1.8448626041666665 16.290004166666666 0.9500021875 19.79277708333333 0.9500021875 23.5c0 3.7072229166666664 0.8948604166666667 7.2097999999999995 2.4543840625 10.329033333333333l7.4655877083333335 -5.7780625Z" stroke-width="1"></path><path fill="#EB4335" d="M23.960159375 9.386879166666667c4.32076875 0 7.23535625 1.8663895833333333 8.897295833333335 3.4261041666666667L39.351484375 6.472291666666667C35.36314270833333 2.76506875 30.172873958333334 0.4895833333333333 23.960159375 0.4895833333333333 14.960442708333334 0.4895833333333333 7.188013541666667 5.6541 3.4041316666666668 13.170770833333334L10.844123958333332 18.949029166666666c1.8665854166666667 -5.54805625 7.031102083333333 -9.562149999999999 13.116035416666666 -9.562149999999999Z" stroke-width="1"></path></svg>